<mxfile host="app.diagrams.net" agent="Mozilla/5.0 (Macintosh; Intel Mac OS X 10_15_7) AppleWebKit/537.36 (KHTML, like Gecko) Chrome/137.0.0.0 Safari/537.36" version="27.0.8">
  <diagram name="Page-1" id="gtEx4x2OVCmOV5k88S3V">
    <mxGraphModel dx="539" dy="283" grid="1" gridSize="10" guides="1" tooltips="1" connect="1" arrows="1" fold="1" page="1" pageScale="1" pageWidth="2920" pageHeight="1200" math="0" shadow="0">
      <root>
        <mxCell id="0" />
        <mxCell id="1" parent="0" />
        <mxCell id="qSNYdpLK8OEsZtSAGU9_-1" value="RP JavaScript Application" style="rounded=0;whiteSpace=wrap;html=1;" parent="1" vertex="1">
          <mxGeometry x="560" y="280" width="200" height="40" as="geometry" />
        </mxCell>
        <mxCell id="qSNYdpLK8OEsZtSAGU9_-2" value="RP Server" style="rounded=0;whiteSpace=wrap;html=1;dashed=1;dashPattern=8 8;" parent="1" vertex="1">
          <mxGeometry x="520" y="160" width="280" height="40" as="geometry" />
        </mxCell>
        <mxCell id="qSNYdpLK8OEsZtSAGU9_-3" value="Authneticator" style="rounded=0;whiteSpace=wrap;html=1;dashed=1;dashPattern=8 8;" parent="1" vertex="1">
          <mxGeometry x="520" y="440" width="280" height="40" as="geometry" />
        </mxCell>
        <mxCell id="qSNYdpLK8OEsZtSAGU9_-5" value="Browser" style="rounded=0;whiteSpace=wrap;html=1;" parent="1" vertex="1">
          <mxGeometry x="560" y="320" width="200" height="40" as="geometry" />
        </mxCell>
        <mxCell id="qSNYdpLK8OEsZtSAGU9_-10" style="edgeStyle=orthogonalEdgeStyle;rounded=0;orthogonalLoop=1;jettySize=auto;html=1;exitX=0.25;exitY=1;exitDx=0;exitDy=0;entryX=0.319;entryY=-0.042;entryDx=0;entryDy=0;entryPerimeter=0;" parent="1" source="qSNYdpLK8OEsZtSAGU9_-5" target="qSNYdpLK8OEsZtSAGU9_-3" edge="1">
          <mxGeometry relative="1" as="geometry" />
        </mxCell>
        <mxCell id="qSNYdpLK8OEsZtSAGU9_-11" style="edgeStyle=orthogonalEdgeStyle;rounded=0;orthogonalLoop=1;jettySize=auto;html=1;exitX=0.75;exitY=1;exitDx=0;exitDy=0;entryX=0.679;entryY=0;entryDx=0;entryDy=0;entryPerimeter=0;startArrow=classic;startFill=1;endArrow=none;" parent="1" source="qSNYdpLK8OEsZtSAGU9_-5" target="qSNYdpLK8OEsZtSAGU9_-3" edge="1">
          <mxGeometry relative="1" as="geometry" />
        </mxCell>
        <mxCell id="qSNYdpLK8OEsZtSAGU9_-12" style="edgeStyle=orthogonalEdgeStyle;rounded=0;orthogonalLoop=1;jettySize=auto;html=1;exitX=0.25;exitY=0;exitDx=0;exitDy=0;entryX=0.322;entryY=1;entryDx=0;entryDy=0;entryPerimeter=0;startArrow=classic;startFill=1;endArrow=none;" parent="1" source="qSNYdpLK8OEsZtSAGU9_-1" target="qSNYdpLK8OEsZtSAGU9_-2" edge="1">
          <mxGeometry relative="1" as="geometry" />
        </mxCell>
        <mxCell id="qSNYdpLK8OEsZtSAGU9_-13" style="edgeStyle=orthogonalEdgeStyle;rounded=0;orthogonalLoop=1;jettySize=auto;html=1;exitX=0.75;exitY=0;exitDx=0;exitDy=0;entryX=0.679;entryY=1;entryDx=0;entryDy=0;entryPerimeter=0;" parent="1" source="qSNYdpLK8OEsZtSAGU9_-1" target="qSNYdpLK8OEsZtSAGU9_-2" edge="1">
          <mxGeometry relative="1" as="geometry" />
        </mxCell>
        <mxCell id="qSNYdpLK8OEsZtSAGU9_-14" style="edgeStyle=orthogonalEdgeStyle;rounded=0;orthogonalLoop=1;jettySize=auto;html=1;exitX=0.75;exitY=0;exitDx=0;exitDy=0;entryX=0.679;entryY=1;entryDx=0;entryDy=0;entryPerimeter=0;fillColor=#f5f5f5;strokeColor=#BABABA;" parent="1" edge="1">
          <mxGeometry relative="1" as="geometry">
            <mxPoint x="630" y="280" as="sourcePoint" />
            <mxPoint x="630" y="200" as="targetPoint" />
          </mxGeometry>
        </mxCell>
        <mxCell id="qSNYdpLK8OEsZtSAGU9_-15" value="" style="endArrow=none;dashed=1;html=1;strokeWidth=5;rounded=0;exitX=1;exitY=1;exitDx=0;exitDy=0;fillColor=#f8cecc;strokeColor=#b85450;curved=0;entryX=-0.016;entryY=-0.003;entryDx=0;entryDy=0;entryPerimeter=0;" parent="1" source="qSNYdpLK8OEsZtSAGU9_-1" target="qSNYdpLK8OEsZtSAGU9_-5" edge="1">
          <mxGeometry width="50" height="50" relative="1" as="geometry">
            <mxPoint x="540" y="320" as="sourcePoint" />
            <mxPoint x="520" y="320" as="targetPoint" />
          </mxGeometry>
        </mxCell>
        <mxCell id="qSNYdpLK8OEsZtSAGU9_-16" value="&lt;font&gt;1&lt;/font&gt;" style="ellipse;whiteSpace=wrap;html=1;fillColor=default;strokeColor=#3399FF;strokeWidth=2;fontColor=#3399FF;fontSize=11;verticalAlign=middle;fontStyle=1" parent="1" vertex="1">
          <mxGeometry x="580" y="230" width="20" height="20" as="geometry" />
        </mxCell>
        <mxCell id="qSNYdpLK8OEsZtSAGU9_-18" value="&lt;font&gt;2&lt;/font&gt;" style="ellipse;whiteSpace=wrap;html=1;fillColor=default;strokeColor=#3399FF;strokeWidth=2;fontColor=#3399FF;fontSize=11;verticalAlign=middle;fontStyle=1" parent="1" vertex="1">
          <mxGeometry x="580" y="390" width="20" height="20" as="geometry" />
        </mxCell>
        <mxCell id="qSNYdpLK8OEsZtSAGU9_-19" value="&lt;font&gt;4&lt;/font&gt;" style="ellipse;whiteSpace=wrap;html=1;fillColor=default;strokeColor=#3399FF;strokeWidth=2;fontColor=#3399FF;fontSize=11;verticalAlign=middle;fontStyle=1" parent="1" vertex="1">
          <mxGeometry x="720" y="390" width="20" height="20" as="geometry" />
        </mxCell>
        <mxCell id="qSNYdpLK8OEsZtSAGU9_-20" value="5" style="ellipse;whiteSpace=wrap;html=1;fillColor=default;strokeColor=#3399FF;strokeWidth=2;fontColor=#3399FF;fontSize=11;verticalAlign=middle;fontStyle=1" parent="1" vertex="1">
          <mxGeometry x="720" y="230" width="20" height="20" as="geometry" />
        </mxCell>
        <mxCell id="qSNYdpLK8OEsZtSAGU9_-21" value="&lt;font&gt;6&lt;/font&gt;" style="ellipse;whiteSpace=wrap;html=1;fillColor=default;strokeColor=#3399FF;strokeWidth=2;fontColor=#3399FF;fontSize=11;verticalAlign=middle;fontStyle=1" parent="1" vertex="1">
          <mxGeometry x="790" y="170" width="20" height="20" as="geometry" />
        </mxCell>
        <mxCell id="qSNYdpLK8OEsZtSAGU9_-22" value="3" style="ellipse;whiteSpace=wrap;html=1;fillColor=default;strokeColor=#3399FF;strokeWidth=2;fontColor=#3399FF;fontSize=11;verticalAlign=middle;fontStyle=1" parent="1" vertex="1">
          <mxGeometry x="650" y="470" width="20" height="20" as="geometry" />
        </mxCell>
        <mxCell id="qSNYdpLK8OEsZtSAGU9_-23" value="0" style="ellipse;whiteSpace=wrap;html=1;fillColor=default;strokeColor=#BABABA;strokeWidth=2;fontColor=#BABABA;fontSize=11;verticalAlign=middle;fontStyle=1" parent="1" vertex="1">
          <mxGeometry x="640" y="230" width="20" height="20" as="geometry" />
        </mxCell>
        <mxCell id="qSNYdpLK8OEsZtSAGU9_-24" value="&lt;font style=&quot;font-size: 10px;&quot;&gt;RP ID,&lt;br&gt;clientDataHash,&lt;br&gt;user info, RP info,&lt;br&gt;(exclude list)&lt;/font&gt;" style="text;html=1;align=center;verticalAlign=middle;whiteSpace=wrap;rounded=0;" parent="1" vertex="1">
          <mxGeometry x="480" y="385" width="90" height="30" as="geometry" />
        </mxCell>
        <mxCell id="qSNYdpLK8OEsZtSAGU9_-25" value="&lt;span style=&quot;font-size: 10px;&quot;&gt;authenticatorData,,&lt;/span&gt;&lt;div&gt;&lt;span style=&quot;font-size: 10px;&quot;&gt;credential ID,&lt;br&gt;credential public key,&lt;br&gt;attestation&lt;/span&gt;&lt;/div&gt;" style="text;html=1;align=center;verticalAlign=middle;whiteSpace=wrap;rounded=0;" parent="1" vertex="1">
          <mxGeometry x="740" y="385" width="110" height="30" as="geometry" />
        </mxCell>
        <mxCell id="qSNYdpLK8OEsZtSAGU9_-26" value="&lt;span style=&quot;font-size: 10px;&quot;&gt;user verification,&lt;br&gt;generate new credential (private key, public key),&lt;br&gt;create attestation&lt;/span&gt;" style="text;html=1;align=center;verticalAlign=middle;whiteSpace=wrap;rounded=0;" parent="1" vertex="1">
          <mxGeometry x="532.5" y="500" width="255" height="30" as="geometry" />
        </mxCell>
        <mxCell id="qSNYdpLK8OEsZtSAGU9_-27" value="&lt;span style=&quot;font-size: 10px;&quot;&gt;challenge,&lt;br&gt;user info, RP info,&lt;br&gt;(exclude list)&lt;/span&gt;" style="text;html=1;align=center;verticalAlign=middle;whiteSpace=wrap;rounded=0;" parent="1" vertex="1">
          <mxGeometry x="480" y="230" width="95" height="30" as="geometry" />
        </mxCell>
        <mxCell id="qSNYdpLK8OEsZtSAGU9_-28" value="&lt;span style=&quot;font-size: 10px;&quot;&gt;clientDataJSON,&lt;br&gt;attestationObject&lt;/span&gt;" style="text;html=1;align=center;verticalAlign=middle;whiteSpace=wrap;rounded=0;" parent="1" vertex="1">
          <mxGeometry x="740" y="230" width="120" height="30" as="geometry" />
        </mxCell>
        <mxCell id="qSNYdpLK8OEsZtSAGU9_-29" value="&lt;span style=&quot;font-size: 10px;&quot;&gt;server validation&lt;/span&gt;" style="text;html=1;align=center;verticalAlign=middle;whiteSpace=wrap;rounded=0;" parent="1" vertex="1">
          <mxGeometry x="810" y="165" width="90" height="30" as="geometry" />
        </mxCell>
        <mxCell id="qSNYdpLK8OEsZtSAGU9_-30" value="&lt;span style=&quot;font-size: 10px;&quot;&gt;PublicKeyCredentialCreationOptions&lt;/span&gt;" style="text;html=1;align=center;verticalAlign=middle;whiteSpace=wrap;rounded=0;fontColor=#3399FF;fontStyle=1" parent="1" vertex="1">
          <mxGeometry x="480" y="200" width="80" height="30" as="geometry" />
        </mxCell>
        <mxCell id="qSNYdpLK8OEsZtSAGU9_-31" value="&lt;span style=&quot;font-size: 10px;&quot;&gt;AuthenticatorAttestationResponse&lt;/span&gt;" style="text;html=1;align=center;verticalAlign=middle;whiteSpace=wrap;rounded=0;fontColor=#3399FF;fontStyle=1" parent="1" vertex="1">
          <mxGeometry x="770" y="200" width="70" height="30" as="geometry" />
        </mxCell>
        <mxCell id="cNFmix95sk26hO_sunyE-2" value="WebAuthn API" style="text;html=1;align=center;verticalAlign=middle;whiteSpace=wrap;rounded=0;fontColor=#B85450;fontStyle=1;fontSize=9;" parent="1" vertex="1">
          <mxGeometry x="480" y="310" width="70" height="20" as="geometry" />
        </mxCell>
      </root>
    </mxGraphModel>
  </diagram>
</mxfile>
